<svg xmlns="http://www.w3.org/2000/svg" xmlns:xlink="http://www.w3.org/1999/xlink" viewBox="0 0 25 25" id="svg1451474137"><path d="M 24.919 22.96 C 23.578 20.741 22.154 18.562 20.814 16.343 C 20.563 15.924 19.85 16.091 19.892 16.594 C 19.892 17.557 19.934 18.479 19.934 19.442 C 19.264 18.73 19.096 17.892 18.971 16.887 C 18.887 16.468 18.719 16.007 18.259 15.882 C 17.547 15.672 16.751 16.384 16.206 16.761 C 14.824 17.725 13.568 18.856 12.06 19.652 C 10.301 20.531 10.259 19.275 10.636 17.892 C 11.013 16.426 11.683 14.96 12.437 13.662 C 13.777 11.4 15.327 9.055 15.704 6.416 C 15.913 4.95 15.159 2.73 13.316 2.814 C 11.054 2.897 8.457 4.573 6.991 6.248 C 6.154 7.086 1.379 13.369 0.918 9.767 C 0.583 7.128 2.761 3.903 4.059 1.725 C 4.227 1.431 3.808 1.138 3.599 1.389 C 1.965 3.4 0.667 5.955 0.08 8.51 C -0.213 9.892 0.248 12.447 2.258 11.903 C 4.604 11.274 6.154 8.636 7.662 6.876 C 8.583 5.746 10.049 4.908 11.306 4.238 C 13.986 2.814 15.201 4.908 14.531 7.337 C 13.693 10.311 11.557 12.74 10.342 15.547 C 9.924 16.552 8.416 19.903 10.049 20.741 C 11.934 21.704 14.447 19.316 15.788 18.269 C 15.704 18.311 17.924 16.51 18.049 16.887 C 18.175 17.264 18.175 17.725 18.259 18.144 C 18.426 18.94 18.761 19.568 19.306 20.07 C 18.51 20.029 17.714 20.07 16.919 20.196 C 16.5 20.28 16.458 20.908 16.793 21.118 C 19.18 22.458 21.861 22.793 24.416 23.673 C 24.793 23.84 25.17 23.338 24.919 22.96 Z M 20.395 20.824 C 20.646 20.824 20.73 20.615 20.688 20.447 C 20.814 20.364 20.898 20.238 20.898 20.07 L 20.898 18.395 C 21.735 19.735 22.573 21.034 23.411 22.374 C 21.819 21.913 20.186 21.578 18.678 20.95 C 19.25 20.907 19.822 20.865 20.395 20.824 Z" fill="#ec1d24"></path></svg>